<svg id="Illustration" xmlns="http://www.w3.org/2000/svg" xmlns:xlink="http://www.w3.org/1999/xlink" width="360" height="643.5" viewBox="0 0 360 643.5">
  <defs>
    <linearGradient id="linear-gradient" x1="0.226" y1="0.21" x2="0.56" y2="1.003" gradientUnits="objectBoundingBox">
      <stop offset="0" stop-color="#b35464" stop-opacity="0.239"/>
      <stop offset="1" stop-color="#781d83" stop-opacity="0.239"/>
    </linearGradient>
    <linearGradient id="linear-gradient-2" x1="0.015" y1="0.5" x2="0.889" y2="0.5" gradientUnits="objectBoundingBox">
      <stop offset="0" stop-color="#b35464"/>
      <stop offset="1" stop-color="#781d83"/>
    </linearGradient>
    <linearGradient id="linear-gradient-3" x1="0.455" y1="0.154" x2="0.98" y2="0.763" gradientUnits="objectBoundingBox">
      <stop offset="0" stop-color="#200d47" stop-opacity="0.329"/>
      <stop offset="1" stop-color="#5e3e9e" stop-opacity="0.329"/>
    </linearGradient>
    <linearGradient id="linear-gradient-4" x1="0.098" y1="0.598" x2="0.9" y2="0.511" gradientUnits="objectBoundingBox">
      <stop offset="0" stop-color="#e7755e"/>
      <stop offset="1" stop-color="#ffaf9f"/>
    </linearGradient>
    <linearGradient id="linear-gradient-5" x1="0.768" y1="0.136" x2="0.432" y2="0.831" gradientUnits="objectBoundingBox">
      <stop offset="0" stop-color="#853a2a" stop-opacity="0.29"/>
      <stop offset="1" stop-color="#4f160a" stop-opacity="0.29"/>
    </linearGradient>
  </defs>
  <rect id="Rectangle" width="360" height="640" transform="translate(0 3.5)" fill="#f3d083"/>
  <g id="Group_4" data-name="Group 4">
    <path id="Path" d="M0,0C92.09,60.959,260.4,112.17,266.391,208.315c1.6,25.624-4.423,47.334-14.98,65.685H0Z" fill="url(#linear-gradient)"/>
    <path id="Path-2" data-name="Path" d="M198.019,252.481H0V0C60.561,53.535,250.912,89.558,256.8,168.2,259.828,208.79,230.368,235.5,198.019,252.481Z" transform="translate(0 12.198)" fill="url(#linear-gradient-2)"/>
    <path id="Path-3" data-name="Path" d="M233.186,64.877c-10.058,10.022-22.4,18.261-35.167,24.966H0V61.168C21.328,24.9,65.091,0,115.559,0,167.7,0,212.713,26.607,233.186,64.877Z" transform="translate(0 174.836)" fill="#652079"/>
    <path id="Path-4" data-name="Path" d="M202,149H0V16.365A130.515,130.515,0,0,1,63.242,0C139.867.048,202,66.747,202,149Z" transform="translate(0 153.293)" fill="#2b1e65"/>
    <ellipse id="Oval" cx="35.845" cy="9.273" rx="35.845" ry="9.273" transform="translate(43.869 181.505)" fill="#181446"/>
    <ellipse id="Oval-2" data-name="Oval" cx="21.863" cy="6.17" rx="21.863" ry="6.17" transform="translate(203.083 193.882)" fill="#641b76"/>
    <g id="Group" transform="translate(202.227 97.404)">
      <path id="Path-5" data-name="Path" d="M3.886.5S2.032,3.353.712,5.707C-.608,8.1-.358,10.094,3.744,7.062S9.165,3.067,8.737,1.926A6.883,6.883,0,0,0,7.738,0Z" transform="translate(27.393 99.009)" fill="#a6496c"/>
      <path id="Path-6" data-name="Path" d="M0,1.777S.5,8.911.856,14.225A75.924,75.924,0,0,0,1.89,23s2.5.785,3.888-.464c0,0,.856-6.063,1.355-9.773A70.591,70.591,0,0,0,7.847.85C7.7-1.5,0,1.777,0,1.777Z" transform="translate(29.353 76.51)" fill="#ff9f8c"/>
      <path id="Path-7" data-name="Path" d="M4.8.392A33.294,33.294,0,0,0,.237,4.886c-1,1.569,1.248,1.5,4.993,0C8.654,3.531,9.261,3.032,9.475,2.6c.25-.428-.392-2.6-.392-2.6Z" transform="translate(12.389 96.691)" fill="#a6496c"/>
      <path id="Path-8" data-name="Path" d="M.462.751A50.834,50.834,0,0,0,.07,11.308C.355,18.405.748,21.4.748,21.4s2.639,1.248,4.316-.392c0,0,.25-5.172.606-7.633S7.952,5.066,7.988,1.785.462.751.462.751Z" transform="translate(16.443 75.646)" fill="#ff9f8c"/>
      <path id="Path-9" data-name="Path" d="M2.7,3.537c8.417-8.6,14.373.464,13.8,6.17a18.253,18.253,0,0,0,1.355,9.452s-6.349,2.318-8.061-4.53C8.053,7.781-5.714,12.133,2.7,3.537Z" transform="translate(27.827 0.065)" fill="#8c289b"/>
      <path id="Path-10" data-name="Path" d="M2.74,13.654a8.556,8.556,0,0,1-2.6-7.811C.992.885,9.231-3.608,15.473,4.309c0,0,4.672-.606,5.243,5.6.571,6.17-3.246,10.914-10.272,9.345C3.453,17.649,2.74,13.654,2.74,13.654Z" transform="translate(18.232 0.006)" fill="#aa2ea9"/>
      <path id="Path-11" data-name="Path" d="M2.818,9.666A59.768,59.768,0,0,1,8.061,2.782,6.721,6.721,0,0,1,13.09.927L17.69,0s2.283.25,4.637.464a9.642,9.642,0,0,1,7.347,4.779c2.14,3.709,4.958,8.524,4.958,8.524C32.349,16.62,28,18.76,28,18.76l-1-1.748a36.094,36.094,0,0,0,1.534,8.239c.571,2.1,1.213,4.1,1.712,5.707C32.956,39.3,32.884,55.39,32.884,55.39,28.39,59.17,10.415,64.021,0,55.033c.535-5.921,6.313-18.4,9.131-24.9,2.818-6.527,1.6-6.991.036-10.379a7.306,7.306,0,0,1-.392-5.814,10.18,10.18,0,0,1-1.248,1.89C7.276,15.479,4.351,11.877,2.818,9.666Z" transform="translate(11.092 20.258)" fill="#e05e8e"/>
      <path id="Shape" d="M1.86,27.427c.036.071.036.142.072.178l-.214.214S1.753,27.713,1.86,27.427ZM.826,6.313A22.11,22.11,0,0,1,.006,0,10.735,10.735,0,0,1,1.326,1.748c2.14,3.709,4.957,8.524,4.957,8.524a16.129,16.129,0,0,1-3.174,2.889C2.431,10.842,1.433,8.809.826,6.313Z" transform="translate(39.477 23.718)" fill="#da437b"/>
      <path id="Path-12" data-name="Path" d="M7.847,0C7.383,1.248,5.671,2.39,4.565,5.6c-.856,2.568-1.783,4.744-2.283,5.849C1.5,10.415.642,9.309,0,8.417A59.768,59.768,0,0,1,5.243,1.534,7.426,7.426,0,0,1,7.847,0Z" transform="translate(13.838 21.471)" fill="#f08bb0"/>
      <path id="Path-13" data-name="Path" d="M1.857,48.114c1.427-3.852,4.851-14.3,3.5-21.507C3.676,17.619.323,12.733.038,8.275A18.347,18.347,0,0,1,1.536,0S4.389,5.386,5.887,7.74a.11.11,0,0,1-.071.036l-1-1.748a36.094,36.094,0,0,0,1.534,8.239c.571,2.1,1.213,4.1,1.712,5.707C10.774,28.319,10.7,44.4,10.7,44.4,9.133,45.688,5.852,47.151,1.857,48.114Z" transform="translate(33.274 31.244)" fill="#da437b"/>
      <path id="Path-14" data-name="Path" d="M0,.446S3.6,1.587,5.635.3c2.033-1.32,1.07,2.069-1,2.461C2.6,3.121.749,1.552,0,.446Z" transform="translate(23.861 41.961)" fill="#da437b"/>
      <path id="Path-15" data-name="Path" d="M18.4,14.327c-1.855,2.425-4.708,4.6-7.561,4.316-3.6-.321-7.312-7.419-9.63-12.2S.25-1.3,2.354.559s10.058,9.523,10.058,9.523l1.32-1.89C15.23,10.439,18.19,14.113,18.4,14.327Z" transform="translate(0.214 21.661)" fill="#ff9f8c"/>
      <path id="Path-16" data-name="Path" d="M1.32,0c.642.892,1.5,2.033,2.318,3.1-.143.535-.678,1.5-1.248.963C1.819,3.567,0,1.89,0,1.89Z" transform="translate(12.59 29.924)" fill="#ffbbae"/>
      <path id="Path-17" data-name="Path" d="M10.95,18.642h-.107c-3.6-.321-7.312-7.419-9.63-12.2S.25-1.3,2.354.559c.606.535,1.676,1.5,2.889,2.675,1.07,2.39,2.925,6.634,5.207,11.449C11.485,16.823,11.449,18,10.95,18.642Z" transform="translate(0.178 21.696)" fill="#ffbbae"/>
      <path id="Path-18" data-name="Path" d="M14.266,0s1.89,3.46,1.89,6.063c0,3.424-2.96,7.882-6.491,10.379C6.1,18.939.963,21.721,0,18.653L9.166,7.383,7.633,4.993A22.253,22.253,0,0,0,14.266,0Z" transform="translate(31.458 34.026)" fill="#ff9f8c"/>
      <path id="Path-19" data-name="Path" d="M.749,2.889A17.361,17.361,0,0,0,3.923,0s1.89,3.46,1.89,6.063c0,3.21-2.568,7.312-5.814,9.844A27.167,27.167,0,0,0,1.427,8.239,18.241,18.241,0,0,0,.749,2.889Z" transform="translate(41.801 34.026)" fill="#fb8973"/>
      <path id="Path-20" data-name="Path" d="M0,2.878.285,4.233s.892,3,2.782,3.281C4.958,7.764,8.1,3.377,8.1,3.377S7.882,1.487,7.7.2C7.561-.9,0,2.878,0,2.878Z" transform="translate(23.575 17.203)" fill="#fb8973"/>
      <path id="Path-21" data-name="Path" d="M10.968,0S5.44,2.925.376,3.067c.25,1.641-1.32,5.778.571,9.63s8.631,4.993,11.556-2c5.207.25,4.958-5.885.036-4.458A9.7,9.7,0,0,1,10.968,0Z" transform="translate(20.275 5.421)" fill="#ff9f8c"/>
    </g>
    <g id="Group-2" data-name="Group" transform="translate(27.82 13.589)">
      <path id="Path-22" data-name="Path" d="M20.176,0A41.4,41.4,0,0,0,9.725,8.168C4.7,13.589.88,19.652.06,33.134S7.122,60.775,7.122,60.775l.642,14.266s7.6,9.38,27.285,6.063C54.736,77.752,57.3,70.548,57.3,70.548s-.571-6.741-.606-8.667c2.283-4.53,5.635-14.623,2.6-29.246a151.77,151.77,0,0,0-4.6-16.656A23.777,23.777,0,0,0,36.832.107h0Z" transform="translate(19.913 66.232)" fill="#573e88"/>
      <path id="Path-23" data-name="Path" d="M19.962,0c5.814,2.283,6.527,11.984,6.67,25.715,0,0-9.594-10.45-11.77-15.3-3.353-.285-7.419,4.565-8.275,8.025s-9.024,10.379,4.565,5.992c12.091-3.923,8.952,17.548,17.619,23.9,6.42,4.708,19.688-2.39,20.009,2.6C49.065,55.461,27.2,61.524,26.275,63.2c-2.746,4.993-1.284,13.018,1.569,18.475C13.47,82,7.764,74.935,7.764,74.935L7.122,60.668S-.76,46.509.06,33.027,4.7,13.482,9.725,8.061A41.464,41.464,0,0,1,19.962,0Z" transform="translate(19.913 66.339)" fill="#482f7b"/>
      <path id="Path-24" data-name="Path" d="M8.275,43.747a.607.607,0,0,1-.25-.036S3,17.675,2.354,15.214.072,1.839,0,.27C-.035-.978,5.029,2.053,9.666,10.435c.357,1.462.713,2.925,1,4.387C13.7,29.088,10.557,39.039,8.275,43.747Z" transform="translate(68.479 84.009)" fill="#3e276c"/>
      <path id="Path-25" data-name="Path" d="M0,4.1s3.46,6.277,4.387,7.561c2.568,1.213,5.172-1.141,5.172-1.141l.178-6.848L3.852,0Z" transform="translate(49.005 72.081)" fill="#e2d6fb"/>
      <path id="Path-26" data-name="Path" d="M0,1.855.5,22.149l3.745,5.1,6.384-1.07L8.988,12.091,4.815,0Z" transform="translate(53.392 81.89)" fill="#c7b9e3"/>
      <path id="Path-27" data-name="Path" d="M18.8,37.057S7.561,13.8,6.6,11.627c1.676-4.565,4.922-9.7,12.269-1.391C17.476,3.923,13.945.036,10.486,0S0,6.384,0,6.384L14.766,37.806Z" transform="translate(42.585 71.261)" fill="url(#linear-gradient-3)"/>
      <path id="Path-28" data-name="Path" d="M2.853.464S-.75,7.276.142,14.409c.214,1.855,8.31,7.918,8.31,7.918s.927,8.453,1.926,11.77c.678,2.283,11.77,9.452,11.77,9.452L5.777,9.808,3.673,0Z" transform="translate(36.38 66.232)" fill="#3a2a5a"/>
      <path id="Path-29" data-name="Path" d="M0,0S6.313,10.343,7.312,12.7C6.634,17.9,5.35,24.11,5.136,25.252c1.284,2.675,1.641,3.424,1.641,3.424s-.963,6.563-1.462,8.6-1.748.963-1.748.963L.5,5.992Z" transform="translate(59.563 70.94)" fill="#3a2a5a"/>
      <path id="Path-30" data-name="Path" d="M8.145,0s5.671,1.177,7.918,8.524c2.1,6.812,3.6,20.508,3.6,20.508a24.22,24.22,0,0,1,4.672-.178c1.712.214,21.15-1.5,24.289-2,4.637,2.532,4.565,10.7,3,12.127a148.384,148.384,0,0,1-21.4,6.456c-10.165,2.033-21.578,3.317-24.182,2.14S.12,38.662.013,27.142C-.058,15.586-.129,1.355,8.145,0Z" transform="translate(19.746 79.357)" fill="#503882"/>
      <path id="Path-31" data-name="Path" d="M5.3,9.309c-.25.107-4.28,1.783-5.207-.036C-.546,8.025,2.165,3.174,4.091,0,4.875,4.993,5.339,9.309,5.3,9.309Z" transform="translate(34.072 99.081)" fill="#3e276c"/>
      <path id="Path-32" data-name="Path" d="M31.087,45.26c-.285.071-.571.107-.856.178-10.165,2.033-21.578,3.317-24.182,2.14S.129,38.662.022,27.142-.121,1.355,8.154,0A7.538,7.538,0,0,1,9.4.428C8.011,2.853,5.407,9.166,6.834,20.258c1.89,14.694,5.814,20.936,14.124,22.719C25.737,44.012,29.09,44.8,31.087,45.26Z" transform="translate(19.702 79.322)" fill="#472f78"/>
      <path id="Path-33" data-name="Path" d="M1.924,0h.036c4.637,2.532,4.565,10.7,3,12.127,0,0-.178.071-.5.214C3.208,11.877,1.959,10.308.64,6.67-1.072,1.89,1.1.392,1.924,0Z" transform="translate(66.377 106.178)" fill="#231f2d"/>
      <path id="Path-34" data-name="Path" d="M9.095,1.962.214,0,0,19.688a13.61,13.61,0,0,0,9.059,0V1.962Z" transform="translate(78.858 99.366)" fill="#271613"/>
      <path id="Path-35" data-name="Path" d="M.207,6.013s4.351-2.14,10.629-4.922c4.494-3.032,13.446.606,13.731,6.6s-7.2,5.136-11.2,3.424C9.2,12.611,2.775,14.929,2.775,14.929S-.9,10.9.207,6.013Z" transform="translate(66.417 102.092)" fill="#ff9f8c"/>
      <path id="Path-36" data-name="Path" d="M6.991,37.062s-2.176-.321-4.423-3.888A17.588,17.588,0,0,1,0,24.472s3.745-3,5.065-9.523S10.2.29,24.9,0c13.41-.25,14.8,9.166,14.8,9.166s9.951,1.962,1.6,17.8C32.92,42.8,6.991,37.062,6.991,37.062Z" transform="translate(25.965 21.93)" fill="#53469c"/>
      <path id="Path-37" data-name="Path" d="M.535,6.741s4.53-.785,7.918,4.779c0,0,2.461-6.884-3.067-11.52L0,4.1Z" transform="translate(51.93 67.623)" fill="#6f4bb9"/>
      <path id="Path-38" data-name="Path" d="M9,29.71s-1-3.424-1.32-4.744c-10.985,1.926-8.2-9.166-3.816-9.452,4.423-.285,4.744,5.742,6.527-1.034S12.1,8.132,12.1,8.132s9.666-2.889,12.733-4.958A41.307,41.307,0,0,1,30.363,0s4.03,4.423,4.922,6.991c.856,2.6,2.6,13.482-1.5,19.081-4.1,5.564-9.273,6.242-9.273,6.242l-4.03,6.028Z" transform="translate(31.803 36.059)" fill="#ff9f8c"/>
      <path id="Path-39" data-name="Path" d="M.165,3.388A18.592,18.592,0,0,1,.023,0,17.879,17.879,0,0,0,8.69.713L4.659,6.741Z" transform="translate(47.592 67.623)" fill="#e7755e"/>
      <path id="Shape-2" data-name="Shape" d="M0,15.586c3.1.463,3.781,4.1,5.029.749A18.744,18.744,0,0,1,4.244,18.9c-.166.4-.358.563-.575.563C2.813,19.466,1.566,16.867,0,15.586ZM7.276,8.132s5.065-1.462,8.988-3.067c-4.352,2.39-9.131,5.029-9.666,5.671-.035.036-.035.072-.071.072C7.312,7.918,7.276,8.132,7.276,8.132ZM21.649,2.14A38.99,38.99,0,0,1,25.537,0a43.3,43.3,0,0,1,3.6,4.53C29.068,4.459,25.894-.178,21.649,2.14Z" transform="translate(36.594 36.023)" fill="#e7755e"/>
      <path id="Path-40" data-name="Path" d="M1.53,0,13.407,9.38S9.02,10.807,8.378,17.9C8.342,17.869-4.284,7.918,1.53,0Z" transform="translate(39.058 65.02)" fill="#6f4bb9"/>
      <path id="Path-41" data-name="Path" d="M2.6,15.657h0C2.676,15.622,52,0,52,0l.285,56.246S1.927,34.2,1.891,34.168h0A19.6,19.6,0,0,1,0,25.608a19.137,19.137,0,0,1,2.6-9.951Z" transform="translate(72.651 64.663)" fill="url(#linear-gradient-4)"/>
      <ellipse id="Oval-3" data-name="Oval" cx="21.721" cy="28.89" rx="21.721" ry="28.89" transform="translate(108.069 63.843)" fill="#e7755e"/>
      <path id="Path-42" data-name="Path" d="M2.425.071C3.1.036,3.816,0,4.53,0,16.513,0,26.25,5.885,26.25,13.125S16.513,26.25,4.53,26.25c-.785,0-1.534-.036-2.283-.071A36.966,36.966,0,0,1,0,13.375,36.473,36.473,0,0,1,2.425.071Z" transform="translate(108.069 79.357)" fill="#af4c39"/>
      <path id="Path-43" data-name="Path" d="M29.781,55.711a17.144,17.144,0,0,1-8.061,2.069C9.737,57.779,0,44.832,0,28.89S9.737,0,21.721,0a17.222,17.222,0,0,1,6.848,1.462c-5.885,6.242-9.63,15.8-9.63,26.5C18.939,39.411,23.219,49.5,29.781,55.711Z" transform="translate(108.069 63.878)" fill="url(#linear-gradient-5)"/>
      <path id="Shape-3" data-name="Shape" d="M12.248,55.746c-13.233-8.88-15.765-30.388-7.491-44.4C8.467,5.064,14.851.071,22.27,0h.143A18.721,18.721,0,0,1,33.719,4.137c7.419,5.814,10.949,15.836,10.914,25.5-.072,11.805-5.529,24.4-16.549,28.283a16.86,16.86,0,0,1-5.592.935A18.555,18.555,0,0,1,12.248,55.746Z" transform="translate(107.448 63.308)" fill="#ffc4c4"/>
      <path id="Path-44" data-name="Path" d="M21.9,0,17.441,4.423l-4.779-1.6L0,9.523l2.39,2.711,8.917-4.922,5.635,2.425,6.67-6.206Z" transform="translate(136.138 67.623)" fill="#e6d77c"/>
      <path id="Path-45" data-name="Path" d="M0,13.767l3.424.535L5.207,9.024,9.7,9.987,13.232,1,9.987,0,7.775,5.921l-5.065.036Z" transform="translate(77.645 7.668)" fill="#ea6c6c"/>
      <path id="Path-46" data-name="Path" d="M24.61,3.6l-9.63-.571L13.161,0H0L.071,3,10.129,4.209l1.427,2.746,13.3.678Z" transform="translate(140.525 90.164)" fill="#e6d77c"/>
      <path id="Path-47" data-name="Path" d="M23.04,15.122,15.8,11.271l.214-4.244L2.069,0,0,2.283,12.234,9.666l-.321,4.173,9.345,5.35Z" transform="translate(134.818 103.468)" fill="#e6d77c"/>
      <path id="Path-48" data-name="Path" d="M.678,8.346,0,0,6.812,3.923Z" transform="translate(96.441 33.491)" fill="#f76868"/>
      <path id="Path-49" data-name="Path" d="M6.491,7.276,0,2.39,7.24,0Z" transform="translate(10.094 21.97)" fill="#f76868"/>
      <path id="Path-50" data-name="Path" d="M.606,7.668,0,0,6.242,3.6Z" transform="translate(53.107)" fill="#f76868"/>
      <path id="Path-51" data-name="Path" d="M0,4.458,6.67.856l5.136,2.39L17.013,0l3.032,3.032L12.234,8.417,6.705,5.279.25,8.988Z" transform="translate(0.071 51.288)" fill="#d95454"/>
    </g>
  </g>
</svg>
